<svg width="20" height="20" viewBox="0 0 20 20" fill="none" xmlns="http://www.w3.org/2000/svg">
<path d="M10.4619 18.5608C10.1878 18.7246 9.84735 18.7308 9.56738 18.5774L10.0125 18.6881L10.4619 18.5608ZM19.6934 6.93966C19.6934 8.57152 19.0538 10.1185 18.1758 11.4807C17.2951 12.847 16.1369 14.0875 15.0049 15.1242C13.8695 16.164 12.7382 17.0202 11.8926 17.6154C11.4691 17.9135 11.1148 18.1472 10.8652 18.3078C10.7404 18.3881 10.6408 18.4499 10.5723 18.4924C10.538 18.5136 10.5118 18.5309 10.4932 18.5422C10.4841 18.5477 10.4768 18.5518 10.4717 18.5549C10.4691 18.5565 10.4648 18.5588 10.4648 18.5588L10.4629 18.5598L10.0125 18.6881L9.56641 18.5764L9.56348 18.5754C9.56348 18.5754 9.56015 18.5729 9.55762 18.5715C9.55228 18.5685 9.54461 18.5641 9.53516 18.5588C9.51625 18.5482 9.48861 18.5336 9.4541 18.5139C9.38493 18.4743 9.28554 18.416 9.16016 18.341C8.90927 18.191 8.55398 17.9715 8.12891 17.6897C7.28001 17.1268 6.14389 16.3091 5.00391 15.2932C2.7772 13.3087 0.304688 10.3646 0.304688 6.93966C0.304735 5.22789 0.871842 3.84914 1.80371 2.87716C2.72774 1.91353 3.96172 1.40166 5.21094 1.3254C7.0254 1.21476 8.90291 2.02577 10.0059 3.72091C11.1193 2.06058 13.0088 1.33125 14.8115 1.48751C17.3049 1.70379 19.6933 3.621 19.6934 6.93966Z" fill="#F27A1A"/>
</svg>
