<svg width="20" height="20" viewBox="0 0 20 20" fill="none" xmlns="http://www.w3.org/2000/svg">
<path fill-rule="evenodd" clip-rule="evenodd" d="M10.002 1.08496C12.707 1.08496 14.9023 3.2803 14.9023 5.98535C14.9022 7.47326 14.2365 8.80521 13.1885 9.7041C16.5302 10.986 18.9023 14.2226 18.9023 18.0146C18.9021 18.5115 18.4989 18.915 18.002 18.915H2.00195C1.50504 18.915 1.10179 18.5115 1.10156 18.0146C1.10156 14.2229 3.47314 10.9863 6.81445 9.7041C5.7668 8.80522 5.10167 7.47299 5.10156 5.98535C5.10156 3.2803 7.2969 1.08496 10.002 1.08496ZM10.002 10.915C6.3844 10.915 3.40334 13.6184 2.96094 17.1143H17.043C16.6006 13.6184 13.6195 10.915 10.002 10.915ZM10.002 2.88574C8.29101 2.88574 6.90234 4.27441 6.90234 5.98535C6.90254 7.69613 8.29113 9.08496 10.002 9.08496C11.7128 9.08496 13.1014 7.69613 13.1016 5.98535C13.1016 4.27441 11.7129 2.88574 10.002 2.88574Z" fill="#333333"/>
</svg>
