<svg width="20" height="20" viewBox="0 0 20 20" fill="none" xmlns="http://www.w3.org/2000/svg">
  <g stroke="#333333" stroke-width="1.65" stroke-linecap="round" stroke-linejoin="round">
    <path d="M6.35 3.45H5.15C4.35 3.45 3.7 4.1 3.7 4.9V16.05C3.7 16.85 4.35 17.5 5.15 17.5H14.85C15.65 17.5 16.3 16.85 16.3 16.05V4.9C16.3 4.1 15.65 3.45 14.85 3.45H13.65"/>
    <path d="M7.2 4.55H12.8C13.15 4.55 13.45 4.25 13.45 3.9V3.15C13.45 2.8 13.15 2.5 12.8 2.5H7.2C6.85 2.5 6.55 2.8 6.55 3.15V3.9C6.55 4.25 6.85 4.55 7.2 4.55Z"/>
    <path d="M7.15 8.35H12.95"/>
    <path d="M7.15 11.25H12.95"/>
    <path d="M7.15 14.15H10.55"/>
  </g>
</svg>
